<?xml version="1.0" standalone="no"?><!DOCTYPE svg PUBLIC "-//W3C//DTD SVG 1.1//EN" "http://www.w3.org/Graphics/SVG/1.1/DTD/svg11.dtd"><svg t="1777186264761" class="icon" viewBox="0 0 1024 1024" version="1.1" xmlns="http://www.w3.org/2000/svg" p-id="5552" xmlns:xlink="http://www.w3.org/1999/xlink" width="200" height="200"><path d="M960.018292 617.246019c0-126.002762-126.101-228.688469-267.646759-228.688469-149.94915 0-268.014126 102.685707-268.014126 228.688469 0 126.205377 118.064976 228.684376 268.014126 228.684376 31.360242 0 63.034639-7.90504 94.555539-15.817244l86.428442 47.359634-23.729447-78.785368C912.906298 751.268432 960.018292 688.301332 960.018292 617.246019zM605.458043 577.828264c-15.699564 0-31.492248-15.616676-31.492248-31.56388 0-15.689331 15.793708-31.492248 31.492248-31.492248 23.852244 0 39.431058 15.802918 39.431058 31.492248C644.889101 562.211589 629.310288 577.828264 605.458043 577.828264zM778.790764 577.828264c-15.58086 0-31.290657-15.616676-31.290657-31.56388 0-15.689331 15.71082-31.492248 31.290657-31.492248 23.61893 0 39.435151 15.802918 39.435151 31.492248C818.225915 562.211589 802.409694 577.828264 778.790764 577.828264zM666.702919 365.928157c10.239202 0 20.342304 0.718361 30.380938 1.840928-27.325345-126.936017-163.051563-221.242893-317.967842-221.242893-173.250856 0-315.13533 118.065999-315.13533 267.974217 0 86.532819 47.24707 157.622924 126.066207 212.738196l-31.472805 94.833879 110.158912-55.258535c39.437198 7.780197 71.055312 15.801894 110.383016 15.801894 9.890254 0 19.698644-0.478907 29.426193-1.240247-6.176676-21.079084-9.720386-43.168172-9.720386-66.032926C398.821823 477.640448 517.023922 365.928157 666.702919 365.928157zM497.291508 280.516882c23.707958 0 39.427988 15.568581 39.427988 39.306214 0 23.617907-15.72003 39.420825-39.427988 39.420825-23.613814 0-47.349401-15.802918-47.349401-39.420825C449.942107 296.085462 473.677695 280.516882 497.291508 280.516882zM276.722974 359.243921c-23.572882 0-47.443545-15.802918-47.443545-39.420825 0-23.737634 23.870664-39.306214 47.443545-39.306214 23.64042 0 39.315424 15.568581 39.315424 39.306214C316.038398 343.441003 300.36237 359.243921 276.722974 359.243921z" p-id="5553" fill="#ffffff"></path></svg>